<mxfile host="app.diagrams.net" agent="Mozilla/5.0 (Windows NT 10.0; Win64; x64) AppleWebKit/537.36 (KHTML, like Gecko) Chrome/129.0.0.0 Safari/537.36" version="24.7.16">
  <diagram name="Página-1" id="9mHnsCruSnf0s9mnt8-D">
    <mxGraphModel dx="880" dy="426" grid="1" gridSize="10" guides="1" tooltips="1" connect="1" arrows="1" fold="1" page="1" pageScale="1" pageWidth="827" pageHeight="1169" math="0" shadow="0">
      <root>
        <mxCell id="0" />
        <mxCell id="1" parent="0" />
        <mxCell id="L1o--GqkhnIH1-QBe1MY-9" style="edgeStyle=orthogonalEdgeStyle;rounded=0;orthogonalLoop=1;jettySize=auto;html=1;exitX=0.5;exitY=1;exitDx=0;exitDy=0;entryX=0.5;entryY=0;entryDx=0;entryDy=0;" edge="1" parent="1" source="L1o--GqkhnIH1-QBe1MY-1" target="L1o--GqkhnIH1-QBe1MY-3">
          <mxGeometry relative="1" as="geometry" />
        </mxCell>
        <mxCell id="L1o--GqkhnIH1-QBe1MY-1" value="INICIO&lt;div&gt;(CONTADOR ATÉ VALOR INFORMADO)&lt;/div&gt;" style="rounded=0;whiteSpace=wrap;html=1;" vertex="1" parent="1">
          <mxGeometry x="120" width="290" height="60" as="geometry" />
        </mxCell>
        <mxCell id="L1o--GqkhnIH1-QBe1MY-10" style="edgeStyle=orthogonalEdgeStyle;rounded=0;orthogonalLoop=1;jettySize=auto;html=1;exitX=0.5;exitY=1;exitDx=0;exitDy=0;entryX=0.5;entryY=0;entryDx=0;entryDy=0;" edge="1" parent="1" source="L1o--GqkhnIH1-QBe1MY-3" target="L1o--GqkhnIH1-QBe1MY-4">
          <mxGeometry relative="1" as="geometry" />
        </mxCell>
        <mxCell id="L1o--GqkhnIH1-QBe1MY-3" value="RECEBE ATÉ VALOR INFORMADO" style="rounded=1;whiteSpace=wrap;html=1;" vertex="1" parent="1">
          <mxGeometry x="120" y="100" width="290" height="60" as="geometry" />
        </mxCell>
        <mxCell id="L1o--GqkhnIH1-QBe1MY-11" style="edgeStyle=orthogonalEdgeStyle;rounded=0;orthogonalLoop=1;jettySize=auto;html=1;exitX=0.5;exitY=1;exitDx=0;exitDy=0;entryX=0.5;entryY=0;entryDx=0;entryDy=0;" edge="1" parent="1" source="L1o--GqkhnIH1-QBe1MY-4" target="L1o--GqkhnIH1-QBe1MY-5">
          <mxGeometry relative="1" as="geometry" />
        </mxCell>
        <mxCell id="L1o--GqkhnIH1-QBe1MY-4" value="INFORMAR CONTADOR = 0;" style="rounded=1;whiteSpace=wrap;html=1;" vertex="1" parent="1">
          <mxGeometry x="120" y="210" width="290" height="60" as="geometry" />
        </mxCell>
        <mxCell id="L1o--GqkhnIH1-QBe1MY-12" style="edgeStyle=orthogonalEdgeStyle;rounded=0;orthogonalLoop=1;jettySize=auto;html=1;exitX=0.5;exitY=1;exitDx=0;exitDy=0;" edge="1" parent="1" source="L1o--GqkhnIH1-QBe1MY-5" target="L1o--GqkhnIH1-QBe1MY-6">
          <mxGeometry relative="1" as="geometry" />
        </mxCell>
        <mxCell id="L1o--GqkhnIH1-QBe1MY-5" value="ESCREVER CONTADOR" style="rounded=1;whiteSpace=wrap;html=1;" vertex="1" parent="1">
          <mxGeometry x="120" y="320" width="290" height="60" as="geometry" />
        </mxCell>
        <mxCell id="L1o--GqkhnIH1-QBe1MY-16" value="NÃO" style="edgeStyle=orthogonalEdgeStyle;rounded=0;orthogonalLoop=1;jettySize=auto;html=1;exitX=1;exitY=0.5;exitDx=0;exitDy=0;entryX=0;entryY=0.5;entryDx=0;entryDy=0;" edge="1" parent="1" source="L1o--GqkhnIH1-QBe1MY-6" target="L1o--GqkhnIH1-QBe1MY-15">
          <mxGeometry relative="1" as="geometry" />
        </mxCell>
        <mxCell id="L1o--GqkhnIH1-QBe1MY-6" value="CONTADOR &amp;lt; VALOR INFORMADO" style="rhombus;whiteSpace=wrap;html=1;" vertex="1" parent="1">
          <mxGeometry x="130" y="430" width="270" height="90" as="geometry" />
        </mxCell>
        <mxCell id="L1o--GqkhnIH1-QBe1MY-21" style="edgeStyle=orthogonalEdgeStyle;rounded=0;orthogonalLoop=1;jettySize=auto;html=1;exitX=0.5;exitY=1;exitDx=0;exitDy=0;entryX=0.5;entryY=0;entryDx=0;entryDy=0;" edge="1" parent="1" source="L1o--GqkhnIH1-QBe1MY-7" target="L1o--GqkhnIH1-QBe1MY-8">
          <mxGeometry relative="1" as="geometry" />
        </mxCell>
        <mxCell id="L1o--GqkhnIH1-QBe1MY-7" value="ESCREVER CONTADOR" style="rounded=1;whiteSpace=wrap;html=1;" vertex="1" parent="1">
          <mxGeometry x="160" y="585" width="190" height="60" as="geometry" />
        </mxCell>
        <mxCell id="L1o--GqkhnIH1-QBe1MY-17" style="edgeStyle=orthogonalEdgeStyle;rounded=0;orthogonalLoop=1;jettySize=auto;html=1;exitX=1;exitY=0.5;exitDx=0;exitDy=0;entryX=0;entryY=0.5;entryDx=0;entryDy=0;" edge="1" parent="1" source="L1o--GqkhnIH1-QBe1MY-8" target="L1o--GqkhnIH1-QBe1MY-6">
          <mxGeometry relative="1" as="geometry">
            <Array as="points">
              <mxPoint x="80" y="690" />
              <mxPoint x="80" y="475" />
            </Array>
          </mxGeometry>
        </mxCell>
        <mxCell id="L1o--GqkhnIH1-QBe1MY-8" value="SOMAR CONTADOR&lt;div&gt;CONTADOR++&lt;/div&gt;" style="rounded=1;whiteSpace=wrap;html=1;" vertex="1" parent="1">
          <mxGeometry x="160" y="670" width="190" height="60" as="geometry" />
        </mxCell>
        <mxCell id="L1o--GqkhnIH1-QBe1MY-15" value="FIM" style="rounded=0;whiteSpace=wrap;html=1;" vertex="1" parent="1">
          <mxGeometry x="520" y="445" width="120" height="60" as="geometry" />
        </mxCell>
        <mxCell id="L1o--GqkhnIH1-QBe1MY-20" value="SIM" style="edgeStyle=orthogonalEdgeStyle;rounded=0;orthogonalLoop=1;jettySize=auto;html=1;exitX=0.5;exitY=1;exitDx=0;exitDy=0;entryX=0.553;entryY=0;entryDx=0;entryDy=0;entryPerimeter=0;" edge="1" parent="1" source="L1o--GqkhnIH1-QBe1MY-6" target="L1o--GqkhnIH1-QBe1MY-7">
          <mxGeometry relative="1" as="geometry" />
        </mxCell>
      </root>
    </mxGraphModel>
  </diagram>
</mxfile>
